<svg xmlns="http://www.w3.org/2000/svg" xmlns:xlink="http://www.w3.org/1999/xlink" width="48" zoomAndPan="magnify" viewBox="0 0 36 36.000001" height="48" preserveAspectRatio="xMidYMid meet" version="1.0"><defs><clipPath id="aaa190d5ff"><path d="M 5.867188 0.117188 L 29.949219 0.117188 L 29.949219 35.027344 L 5.867188 35.027344 Z M 5.867188 0.117188 " clip-rule="nonzero"/></clipPath></defs><g clip-path="url(#aaa190d5ff)"><path fill="#000000" d="M 12.183594 0.148438 C 11.660156 0.257812 11.175781 0.648438 10.949219 1.140625 L 10.824219 1.414062 L 10.808594 6.847656 L 10.800781 12.277344 L 8.878906 12.292969 C 7.035156 12.304688 6.953125 12.3125 6.746094 12.40625 C 6.441406 12.550781 6.15625 12.828125 6.003906 13.113281 C 5.890625 13.328125 5.878906 13.410156 5.878906 13.8125 C 5.878906 14.210938 5.890625 14.292969 6.003906 14.507812 C 6.140625 14.777344 6.429688 15.0625 6.679688 15.183594 L 6.84375 15.261719 L 6.84375 19.410156 C 6.84375 23.679688 6.859375 24.082031 7.042969 24.9375 C 7.5625 27.40625 9.304688 29.609375 11.574219 30.675781 C 12.300781 31.019531 13.65625 31.390625 14.179688 31.390625 C 14.273438 31.390625 14.378906 31.410156 14.410156 31.429688 C 14.449219 31.453125 14.46875 31.777344 14.480469 32.492188 L 14.496094 33.515625 L 14.667969 33.890625 C 15 34.585938 15.589844 35.023438 16.332031 35.117188 C 16.582031 35.152344 17.234375 35.15625 18.265625 35.132812 L 19.824219 35.089844 L 20.152344 34.925781 C 20.535156 34.734375 20.910156 34.371094 21.082031 34.027344 C 21.304688 33.585938 21.347656 33.3125 21.347656 32.335938 L 21.347656 31.445312 L 21.503906 31.421875 C 21.582031 31.40625 21.824219 31.371094 22.03125 31.34375 C 22.800781 31.234375 23.636719 30.972656 24.390625 30.597656 C 26.664062 29.480469 28.273438 27.359375 28.78125 24.8125 C 28.945312 24.011719 28.976562 23.144531 28.976562 19.105469 L 28.976562 15.253906 L 29.179688 15.132812 C 29.441406 14.976562 29.714844 14.671875 29.835938 14.390625 C 29.949219 14.136719 29.96875 13.664062 29.878906 13.351562 C 29.792969 13.0625 29.546875 12.710938 29.308594 12.558594 C 28.890625 12.292969 28.796875 12.28125 26.800781 12.28125 L 24.972656 12.28125 L 24.964844 6.847656 L 24.949219 1.414062 L 24.816406 1.121094 C 24.648438 0.753906 24.328125 0.429688 23.960938 0.257812 C 23.730469 0.152344 23.613281 0.128906 23.300781 0.125 C 22.671875 0.125 22.171875 0.382812 21.832031 0.878906 C 21.519531 1.347656 21.535156 1.046875 21.535156 6.941406 L 21.535156 12.28125 L 14.285156 12.28125 L 14.285156 7.027344 C 14.285156 3.320312 14.269531 1.699219 14.230469 1.523438 C 14.113281 0.964844 13.769531 0.519531 13.28125 0.285156 C 12.957031 0.136719 12.503906 0.078125 12.183594 0.148438 Z M 27.1875 16.972656 C 27.585938 17.179688 27.566406 17.011719 27.546875 20.378906 C 27.53125 23.609375 27.523438 23.617188 27.238281 24.632812 C 26.488281 27.222656 24.4375 29.273438 21.886719 29.980469 C 21.125 30.191406 19.308594 30.359375 18.972656 30.246094 C 18.761719 30.171875 18.546875 29.921875 18.503906 29.695312 C 18.472656 29.5625 18.492188 29.464844 18.578125 29.300781 C 18.742188 28.957031 18.855469 28.921875 19.933594 28.863281 C 21.207031 28.796875 21.828125 28.648438 22.683594 28.210938 C 23.328125 27.878906 23.773438 27.550781 24.335938 26.972656 C 25.242188 26.054688 25.75 25.117188 26.070312 23.796875 C 26.160156 23.414062 26.167969 23.203125 26.191406 20.378906 C 26.210938 18.234375 26.234375 17.339844 26.277344 17.273438 C 26.398438 17.054688 26.667969 16.878906 26.878906 16.875 C 26.9375 16.867188 27.074219 16.917969 27.1875 16.972656 Z M 27.1875 16.972656 " fill-opacity="1" fill-rule="nonzero"/></g></svg>